<svg xmlns="http://www.w3.org/2000/svg" xmlns:xlink="http://www.w3.org/1999/xlink" width="200" zoomAndPan="magnify" viewBox="0 0 150 60" height="80" preserveAspectRatio="xMidYMid meet" version="1.0"><defs><g/></defs><g fill="#7d797e" fill-opacity="1"><g transform="translate(0.363598, 48.26718)"><g><path d="M 33.484375 -24.1875 L 28.25 -2.8125 C 28 -1.84375 27.644531 -1.128906 27.1875 -0.671875 C 26.738281 -0.222656 26.125 0 25.34375 0 L 23.703125 0 L 17.640625 -18.265625 L 11.390625 0 L 9.75 0 C 9 0 8.378906 -0.222656 7.890625 -0.671875 C 7.410156 -1.128906 7.054688 -1.84375 6.828125 -2.8125 L 1.546875 -24.1875 L 5.234375 -24.1875 L 9.75 -3.875 L 16.28125 -23.5 L 17.546875 -23.5 C 18.484375 -23.5 19.113281 -22.984375 19.4375 -21.953125 L 25.34375 -4.015625 L 29.8125 -24.1875 Z M 33.484375 -24.1875 "/></g></g></g><g fill="#7d797e" fill-opacity="1"><g transform="translate(35.401358, 48.26718)"><g><path d="M 11.734375 0.390625 C 9.015625 0.390625 6.832031 -0.40625 5.1875 -2 C 3.539062 -3.601562 2.71875 -5.734375 2.71875 -8.390625 L 2.71875 -15.3125 C 2.71875 -18.09375 3.539062 -20.332031 5.1875 -22.03125 C 6.832031 -23.726562 9.015625 -24.578125 11.734375 -24.578125 L 15.703125 -24.578125 C 18.285156 -24.578125 20.367188 -23.75 21.953125 -22.09375 C 23.535156 -20.445312 24.328125 -18.269531 24.328125 -15.5625 L 24.328125 -11.296875 L 6.203125 -11.296875 L 6.203125 -8.390625 C 6.203125 -6.703125 6.707031 -5.332031 7.71875 -4.28125 C 8.738281 -3.238281 10.078125 -2.71875 11.734375 -2.71875 L 15.40625 -2.71875 C 17.03125 -2.71875 18.34375 -3.160156 19.34375 -4.046875 C 20.34375 -4.929688 20.84375 -6.117188 20.84375 -7.609375 L 24.234375 -7.609375 C 24.234375 -5.210938 23.425781 -3.28125 21.8125 -1.8125 C 20.195312 -0.34375 18.0625 0.390625 15.40625 0.390625 Z M 20.84375 -14.296875 L 20.84375 -15.5625 C 20.84375 -17.332031 20.375 -18.757812 19.4375 -19.84375 C 18.5 -20.925781 17.253906 -21.46875 15.703125 -21.46875 L 11.734375 -21.46875 C 10.078125 -21.46875 8.738281 -20.898438 7.71875 -19.765625 C 6.707031 -18.640625 6.203125 -17.15625 6.203125 -15.3125 L 6.203125 -14.296875 Z M 20.84375 -14.296875 "/></g></g></g><g fill="#7d797e" fill-opacity="1"><g transform="translate(62.15218, 48.26718)"><g><path d="M 10.65625 0.390625 C 8.300781 0.390625 6.421875 -0.222656 5.015625 -1.453125 C 3.609375 -2.679688 2.90625 -4.328125 2.90625 -6.390625 L 2.90625 -7.953125 C 2.90625 -9.984375 3.628906 -11.613281 5.078125 -12.84375 C 6.535156 -14.070312 8.460938 -14.6875 10.859375 -14.6875 L 13.953125 -14.6875 C 15.023438 -14.6875 16.125 -14.523438 17.25 -14.203125 C 18.382812 -13.878906 19.351562 -13.441406 20.15625 -12.890625 L 20.15625 -16.921875 C 20.15625 -18.273438 19.734375 -19.378906 18.890625 -20.234375 C 18.054688 -21.085938 16.945312 -21.515625 15.5625 -21.515625 L 11.6875 -21.515625 C 10.289062 -21.515625 9.171875 -21.191406 8.328125 -20.546875 C 7.492188 -19.898438 7.078125 -19.046875 7.078125 -17.984375 L 3.59375 -17.984375 C 3.59375 -19.953125 4.332031 -21.539062 5.8125 -22.75 C 7.300781 -23.96875 9.257812 -24.578125 11.6875 -24.578125 L 15.5625 -24.578125 C 17.945312 -24.578125 19.875 -23.875 21.34375 -22.46875 C 22.820312 -21.0625 23.5625 -19.210938 23.5625 -16.921875 L 23.5625 0 L 20.265625 0 L 20.265625 -3.390625 C 19.515625 -2.222656 18.535156 -1.300781 17.328125 -0.625 C 16.117188 0.0507812 14.867188 0.390625 13.578125 0.390625 Z M 13.671875 -2.671875 C 15.191406 -2.671875 16.546875 -3.140625 17.734375 -4.078125 C 18.929688 -5.015625 19.738281 -6.253906 20.15625 -7.796875 L 20.15625 -9.59375 C 19.507812 -10.207031 18.613281 -10.695312 17.46875 -11.0625 C 16.320312 -11.4375 15.148438 -11.625 13.953125 -11.625 L 10.859375 -11.625 C 9.535156 -11.625 8.457031 -11.285156 7.625 -10.609375 C 6.800781 -9.929688 6.390625 -9.046875 6.390625 -7.953125 L 6.390625 -6.390625 C 6.390625 -5.265625 6.773438 -4.363281 7.546875 -3.6875 C 8.328125 -3.007812 9.363281 -2.671875 10.65625 -2.671875 Z M 13.671875 -2.671875 "/></g></g></g><g fill="#b0cee7" fill-opacity="1"><g transform="translate(89.09609, 48.26718)"><g><path d="M 7.03125 0 C 6.03125 0 5.253906 -0.269531 4.703125 -0.8125 C 4.148438 -1.363281 3.875 -2.144531 3.875 -3.15625 L 3.875 -33.921875 L 17.9375 -33.921875 C 20.320312 -33.921875 22.421875 -33.460938 24.234375 -32.546875 C 26.046875 -31.628906 27.453125 -30.320312 28.453125 -28.625 C 29.453125 -26.925781 29.953125 -24.976562 29.953125 -22.78125 L 29.953125 -12.125 C 29.953125 -8.144531 28.945312 -5.128906 26.9375 -3.078125 C 24.9375 -1.023438 22 0 18.125 0 Z M 18.03125 -3.203125 C 20.78125 -3.203125 22.851562 -3.953125 24.25 -5.453125 C 25.65625 -6.953125 26.359375 -9.175781 26.359375 -12.125 L 26.359375 -22.78125 C 26.359375 -25.132812 25.578125 -27.046875 24.015625 -28.515625 C 22.453125 -29.992188 20.394531 -30.734375 17.84375 -30.734375 L 7.46875 -30.734375 L 7.46875 -3.203125 Z M 18.03125 -3.203125 "/></g></g></g><g fill="#b0cee7" fill-opacity="1"><g transform="translate(121.75923, 48.26718)"><g><path d="M 3.6875 -24.1875 L 7.078125 -24.1875 L 7.078125 -20.453125 C 7.722656 -21.585938 8.695312 -22.507812 10 -23.21875 C 11.3125 -23.925781 12.679688 -24.28125 14.109375 -24.28125 L 16.234375 -24.28125 L 16.234375 -21.125 L 14.109375 -21.125 C 12.035156 -21.125 10.359375 -20.46875 9.078125 -19.15625 C 7.804688 -17.851562 7.171875 -16.117188 7.171875 -13.953125 L 7.171875 0 L 3.6875 0 Z M 3.6875 -24.1875 "/></g></g></g><g fill="#b0cee7" fill-opacity="1"><g transform="translate(138.963105, 48.26718)"><g><path d="M 5.328125 0.484375 C 4.554688 0.484375 3.925781 0.242188 3.4375 -0.234375 C 2.957031 -0.722656 2.71875 -1.351562 2.71875 -2.125 C 2.71875 -2.90625 2.957031 -3.535156 3.4375 -4.015625 C 3.925781 -4.503906 4.554688 -4.75 5.328125 -4.75 C 6.109375 -4.75 6.738281 -4.503906 7.21875 -4.015625 C 7.707031 -3.535156 7.953125 -2.90625 7.953125 -2.125 C 7.953125 -1.351562 7.707031 -0.722656 7.21875 -0.234375 C 6.738281 0.242188 6.109375 0.484375 5.328125 0.484375 Z M 5.328125 0.484375 "/></g></g></g></svg>